<svg xmlns="http://www.w3.org/2000/svg" width="40" height="40" fill="none" viewBox="0 0 40 40"><path fill="#D4EDFB" d="M23 35V6H25.75H34V35H23Z"/><path stroke="#546E7A" stroke-linecap="round" stroke-width="2" d="M6 7C6 5.89543 6.89543 5 8 5H26.7582H31C32.6569 5 34 6.34315 34 8V11.1429V33C34 34.1046 33.1046 35 32 35H8C6.89543 35 6 34.1046 6 33V7Z"/><mask id="path-3-inside-1_2521_13660" fill="#fff"><rect width="2" height="22" x="31" y="9" rx="1" transform="rotate(90 31 9)"/></mask><rect width="2" height="22" x="31" y="9" stroke="#546E7A" stroke-linecap="round" stroke-width="2" mask="url(#path-3-inside-1_2521_13660)" rx="1" transform="rotate(90 31 9)"/><mask id="path-4-inside-2_2521_13660" fill="#fff"><rect width="2" height="22" x="31" y="14" rx="1" transform="rotate(90 31 14)"/></mask><rect width="2" height="22" x="31" y="14" stroke="#546E7A" stroke-linecap="round" stroke-width="2" mask="url(#path-4-inside-2_2521_13660)" rx="1" transform="rotate(90 31 14)"/><mask id="path-5-inside-3_2521_13660" fill="#fff"><rect width="2" height="22" x="31" y="19" rx="1" transform="rotate(90 31 19)"/></mask><rect width="2" height="22" x="31" y="19" stroke="#546E7A" stroke-linecap="round" stroke-width="2" mask="url(#path-5-inside-3_2521_13660)" rx="1" transform="rotate(90 31 19)"/><rect width="3" height="14" x="27" y="27" fill="#D4EDFB" stroke="#546E7A" stroke-linecap="round" stroke-width="2" rx="1.5" transform="rotate(90 27 27)"/></svg>